{"title":"The Newsroom 2012 S02E08 HDTV x264 AAC E-Subs [GWC].mp4","uid":8896862,"size":203471159,"categoryP":"video","categoryS":"tv_shows","magnet":"?xt=urn:btih:efcfc0b0822028d82ab03be8d4e6ad07135933f8&amp;dn=The+Newsroom+2012+S02E08+HDTV+x264+AAC+E-Subs+%5BGWC%5D.mp4&amp;tr=udp%3A%2F%2Ftracker.openbittorrent.com%3A80&amp;tr=udp%3A%2F%2Fopen.demonii.com%3A1337&amp;tr=udp%3A%2F%2Ftracker.coppersurfer.tk%3A6969&amp;tr=udp%3A%2F%2Fexodus.desync.com%3A6969","seeders":1,"leechers":0,"uploader":"canc232","files":1,"time":1378721178,"description":"The Newsroom 2012 S02E08 HDTV x264 AAC E-Subs [GWC]\n\nEpisode Title : Election Night - Part I \n\n\n\nSCREENS :\n &lt;a href=&quot;\nhttp://s20.postimg.org/awpwe9at9/The_Newsroom_2012_S02_E08_HDTV_x264_AAC_E_Subs_G.jpg&quot; rel=&quot;nofollow&quot; target=&quot;_NEW&quot;&gt;\nhttp://s20.postimg.org/awpwe9at9/The_Newsroom_2012_S02_E08_HDTV_x264_AAC_E_Subs_G.jpg&lt;/a&gt; &lt;a href=&quot;\nhttp://s20.postimg.org/6mb8io5q5/The_Newsroom_2012_S02_E08_HDTV_x264_AAC_E_Subs_G.jpg&quot; rel=&quot;nofollow&quot; target=&quot;_NEW&quot;&gt;\nhttp://s20.postimg.org/6mb8io5q5/The_Newsroom_2012_S02_E08_HDTV_x264_AAC_E_Subs_G.jpg&lt;/a&gt; &lt;a href=&quot;\nhttp://s20.postimg.org/6l1ap93wd/The_Newsroom_2012_S02_E08_HDTV_x264_AAC_E_Subs_G.jpg&quot; rel=&quot;nofollow&quot; target=&quot;_NEW&quot;&gt;\nhttp://s20.postimg.org/6l1ap93wd/The_Newsroom_2012_S02_E08_HDTV_x264_AAC_E_Subs_G.jpg&lt;/a&gt; \n\nMEDIA INFO :\n\nGeneral \nFormat : MPEG-4 \nFile size : 194 MiB \nDuration : 47mn 59s \nOverall bit rate mode : Variable \nOverall bit rate : 565 Kbps \nTitle/Sort : The Newsroom 2012 \n\nVideo \nID : 1 \nFormat : AVC \nFormat profile : &lt;a class=&quot;__cf_email__&quot; href=&quot;/cdn-cgi/l/email-protection&quot; data-cfemail=&quot;88c0e1efe0c8c4bba6b8&quot;&gt;[email&amp;#160;protected]&lt;/a&gt;&lt;script cf-hash='f9e31' type=&quot;text/javascript&quot;&gt;\n/* &lt;![CDATA[ */!function(){try{var t=&quot;currentScript&quot;in document?document.currentScript:function(){for(var t=document.getElementsByTagName(&quot;script&quot;),e=t.length;e--;)if(t[e].getAttribute(&quot;cf-hash&quot;))return t[e]}();if(t&amp;&amp;t.previousSibling){var e,r,n,i,c=t.previousSibling,a=c.getAttribute(&quot;data-cfemail&quot;);if(a){for(e=&quot;&quot;,r=parseInt(a.substr(0,2),16),n=2;a.length-n;n+=2)i=parseInt(a.substr(n,2),16)^r,e+=String.fromCharCode(i);e=document.createTextNode(e),c.parentNode.replaceChild(e,c)}}}catch(u){}}();/* ]]&gt; */&lt;/script&gt; \nFormat settings, CABAC : Yes \nFormat settings, ReFrames : 5 frames \nDuration : 47mn 59s \nBit rate : 503 Kbps \nMaximum bit rate : 1 152 Kbps \nWidth : 720 pixels \nHeight : 402 pixels \nDisplay aspect ratio : 16:9 \nFrame rate : 23.976 fps \nStream size : 173 MiB (89%) \nTitle : The Newsroom 2012 S02E08 HDTV x264 AAC E-Subs [GWC] \nWriting library : x264 core \n\nAudio \nID : 2 \nFormat : AAC \nFormat profile : HE-AAC / LC \nDuration : 47mn 59s \nBit rate mode : Variable \nChannel(s) : 2 channels \nChannel positions : Front: L R \nSampling rate : 48.0 KHz / 24.0 KHz \nStream size : 18.5 MiB (10%) \nTitle : The Newsroom 2012 S02E08 HDTV x264 AAC E-Subs [GWC \nLanguage : English \n\nText \nID : 3 \nFormat : Timed Text \nMuxing mode : sbtl \nCodec ID : tx3g \nDuration : 46mn 48s \nBit rate mode : Variable \nStream size : 49.2 KiB \nTitle : English Subtitle by icephoenix \nLanguage : English","torrent":{"xt":"urn:btih:efcfc0b0822028d82ab03be8d4e6ad07135933f8","amp;dn":"The+Newsroom+2012+S02E08+HDTV+x264+AAC+E-Subs+%5BGWC%5D.mp4","amp;tr":["udp%3A%2F%2Ftracker.openbittorrent.com%3A80","udp%3A%2F%2Fopen.demonii.com%3A1337","udp%3A%2F%2Ftracker.coppersurfer.tk%3A6969","udp%3A%2F%2Fexodus.desync.com%3A6969"],"infoHash":"efcfc0b0822028d82ab03be8d4e6ad07135933f8","infoHashBuffer":{"type":"Buffer","data":[239,207,192,176,130,32,40,216,42,176,59,232,212,230,173,7,19,89,51,248]},"announce":[],"urlList":[]}}